# xmcd
#
# Track frame offsets:
# 150
# 17858
# 33937
# 50178
# 63633
# 79077
# 96416
# 113477
# 129679
# 150760
# 172608
# 188451
# 205732
# 219871
# 239840
# 258362
# 289321
#
# Disc length: 4399 seconds
#
#
# Revision: 3
# Processed by: cddbd v1.5.1PL0 Copyright (c) Steve Scherf et al.
# Submitted via: FreeRIP 2.90 
#
DISCID=e6112d11
DTITLE=Bruno and Marrone - Bruno and Marrone - Ao Vivo
DYEAR=2004
DGENRE=Sertanejo (BR)
TTITLE0=Inevitável
TTITLE1=Doce Desejo
TTITLE2=Deixa
TTITLE3=Trânsito Parado
TTITLE4=O Amor Está Aqui
TTITLE5=Apaziguar_Credo em Cruz_Ave-Maria_Pra Lá que Eu Vou
TTITLE6=Meu Disfarce
TTITLE7=Te Amar Foi Ilusão
TTITLE8=Será
TTITLE9=Se Tiver Coragem, Joga Fora
TTITLE10=Ligação Urbana
TTITLE11=Sonhos Perdidos
TTITLE12=Grito de Alerta
TTITLE13=Se Não Tivesse Ido
TTITLE14=Menina (Querida)
TTITLE15=Vai Dar Namoro
TTITLE16=Clipe - Você não me ensinou a te esquecer
EXTD=YEAR: 2004
EXTT0=
EXTT1=
EXTT2=
EXTT3=
EXTT4=
EXTT5=
EXTT6=
EXTT7=
EXTT8=
EXTT9=
EXTT10=
EXTT11=
EXTT12=
EXTT13=
EXTT14=
EXTT15=
EXTT16=
PLAYORDER=
